<?xml version="1.0" encoding="utf-8"?>
<svg viewBox="32 32 32 32" width="32px" height="32px" xmlns="http://www.w3.org/2000/svg">
  <defs/>
  <path d="M 59.589 52.533 Q 59.589 54.63 59.542 56.68 Q 59.496 58.731 59.403 60.809 L 48.716 60.623 Q 49.272 57.339 49.68 54.064 Q 50.089 50.789 50.089 47.449 Q 50.089 47.208 50.07 46.67 Q 50.052 46.132 49.996 45.455 Q 49.94 44.777 49.838 44.063 Q 49.736 43.349 49.56 42.755 Q 49.384 42.161 49.133 41.781 Q 48.883 41.401 48.53 41.401 Q 47.899 41.401 47.463 41.772 Q 47.027 42.143 46.74 42.727 Q 46.452 43.312 46.285 44.035 Q 46.118 44.759 46.034 45.483 Q 45.951 46.206 45.923 46.846 Q 45.895 47.486 45.895 47.895 Q 45.803 51.179 45.747 54.417 Q 45.691 57.654 45.598 60.957 L 36.136 61.365 Q 36.507 54.816 36.85 48.34 Q 37.193 41.864 37.397 35.315 L 46.155 34.869 L 46.081 37.838 Q 46.6 37.207 47.203 36.651 Q 47.806 36.094 48.493 35.695 Q 49.179 35.296 49.949 35.064 Q 50.72 34.832 51.573 34.832 Q 53.15 34.832 54.338 35.352 Q 55.525 35.871 56.379 36.762 Q 57.232 37.652 57.807 38.868 Q 58.383 40.083 58.735 41.456 Q 59.088 42.829 59.273 44.323 Q 59.459 45.817 59.524 47.264 Q 59.589 48.711 59.589 50.066 Q 59.589 51.42 59.589 52.533 Z" style="paint-order: fill; stroke: rgb(0, 0, 0);"/>
</svg>